# xmcd
#
# Track frame offsets:
#	150
#	10918
#	46040
#	59792
#	89506
#	102406
#	114931
#	136981
#	155151
#	166114
#	191015
#	202139
#	242818
#	272667
#	301976
#
# Disc length: 4366 seconds
#
# Revision: 1
# Processed by: cddbd v1.5.2PL0 Copyright (c) Steve Scherf et al.
# Submitted via: audiograbber 1.83.01
#
DISCID=d2110c0f
DTITLE=Various Artist - Battle of Clarinets CD4
DYEAR=2005
DGENRE=Blues
TTITLE0=Woody Herman - Blowin´Up A Storm
TTITLE1=Benny Goodman - Oh, Baby!
TTITLE2=Artie Shaw - Tea for Two
TTITLE3=Woody Herman - Rose
TTITLE4=Benny Goodman - Cherokee
TTITLE5=Artie Shaw - The Gentle Grifter
TTITLE6=Jimmy Hamilton - Honeysuckle Rose
TTITLE7=Buddy DeFranco - Cable Car
TTITLE8=Tony Scott - I´ll Remember April
TTITLE9=Jimmy Hamilton - Time on my Handy
TTITLE10=Tony Scott - A Blues Serenade
TTITLE11=Buddy DeFranco - Buddy´s Blues
TTITLE12=Tony Scott - Finger Poppin´Blues
TTITLE13=Buddy DeFranco - Now´s The Time
TTITLE14=Bill Smith - Blue Rondo A La Turk
EXTD=
EXTT0=
EXTT1=
EXTT2=
EXTT3=
EXTT4=
EXTT5=
EXTT6=
EXTT7=
EXTT8=
EXTT9=
EXTT10=
EXTT11=
EXTT12=
EXTT13=
EXTT14=
PLAYORDER=
